<svg xmlns="http://www.w3.org/2000/svg" xmlns:xlink="http://www.w3.org/1999/xlink" width="400" height="980pt" viewBox="0 0 299.5 980"><g id="graph0" class="graph" transform="scale(1 1) rotate(0) translate(4 976)"><title>%3</title><polygon fill="#fff" stroke="none" points="-4 4 -4 -976 295.5 -976 295.5 4 -4 4"/><g id="node1" class="node"><title>n0xd46960</title><polygon fill="#cfc" stroke="#000" points="158 -972 86 -972 86 -936 158 -936 158 -972"/><text x="94" y="-952.8" font-family="Fira Mono" font-size="9" font-weight="bold" text-anchor="start">START_TKN</text></g><g id="node2" class="node"><title>n0xd46be0</title><polygon fill="#fff" stroke="#000" points="159 -900 85 -900 85 -864 159 -864 159 -900"/><text x="93" y="-885.8" font-family="Fira Mono" font-size="9" font-weight="bold" text-anchor="start">WORD_TKN</text><text x="101.5" y="-875.2" font-family="Fira Mono" font-size="9" text-anchor="start">&quot;</text><text x="105.5" y="-875.2" fill="#05f" font-family="Fira Mono" font-size="11" font-weight="bold" text-anchor="start">show</text><text x="138.5" y="-875.2" font-family="Fira Mono" font-size="9" text-anchor="start">&quot;</text></g><g id="edge1" class="edge"><title>n0xd46960-&gt;n0xd46be0</title><path fill="none" stroke="#000" d="M122,-935.697C122,-927.983 122,-918.712 122,-910.112"/><polygon fill="#000" stroke="#000" points="125.5 -910.104 122 -900.104 118.5 -910.104 125.5 -910.104"/></g><g id="node3" class="node"><title>n0xd47f80</title><polygon fill="#adf" stroke="#000" points="156.5 -828 87.5 -828 87.5 -792 156.5 -792 156.5 -828"/><text x="95.5" y="-808.8" font-family="Fira Mono" font-size="9" font-weight="bold" text-anchor="start">FORK_TKN</text></g><g id="edge2" class="edge"><title>n0xd46be0-&gt;n0xd47f80</title><path fill="none" stroke="#000" d="M122,-863.697C122,-855.983 122,-846.712 122,-838.112"/><polygon fill="#000" stroke="#000" points="125.5 -838.104 122 -828.104 118.5 -838.104 125.5 -838.104"/></g><g id="node4" class="node"><title>n0xd47c70</title><polygon fill="#fff" stroke="#000" points="127 -756 53 -756 53 -720 127 -720 127 -756"/><text x="61" y="-741.8" font-family="Fira Mono" font-size="9" font-weight="bold" text-anchor="start">WORD_TKN</text><text x="80.5" y="-731.2" font-family="Fira Mono" font-size="9" text-anchor="start">&quot;</text><text x="84.5" y="-731.2" fill="#05f" font-family="Fira Mono" font-size="11" font-weight="bold" text-anchor="start">ip</text><text x="95.5" y="-731.2" font-family="Fira Mono" font-size="9" text-anchor="start">&quot;</text></g><g id="edge3" class="edge"><title>n0xd47f80-&gt;n0xd47c70</title><path fill="none" stroke="#000" d="M114.09,-791.697C110.447,-783.728 106.046,-774.1 102.006,-765.264"/><polygon fill="#000" stroke="#000" points="105.16 -763.744 97.819 -756.104 98.794 -766.654 105.16 -763.744"/></g><g id="node5" class="node"><title>n0xd484c0</title><polygon fill="#daf" stroke="#000" points="153.5 -684 90.5 -684 90.5 -648 153.5 -648 153.5 -684"/><text x="98.5" y="-664.8" font-family="Fira Mono" font-size="9" font-weight="bold" text-anchor="start">JOIN_TKN</text></g><g id="edge20" class="edge"><title>n0xd47f80-&gt;n0xd484c0</title><path fill="none" stroke="#000" d="M127.824,-791.56C130.931,-781.33 134.431,-768.08 136,-756 138.06,-740.133 138.06,-735.867 136,-720 134.897,-711.506 132.839,-702.434 130.634,-694.24"/><polygon fill="#000" stroke="#000" points="133.945 -693.087 127.824 -684.44 127.216 -695.017 133.945 -693.087"/></g><g id="edge4" class="edge"><title>n0xd47c70-&gt;n0xd484c0</title><path fill="none" stroke="#000" d="M97.9101,-719.697C101.553,-711.728 105.954,-702.1 109.994,-693.264"/><polygon fill="#000" stroke="#000" points="113.206 -694.654 114.181 -684.104 106.84 -691.744 113.206 -694.654"/></g><g id="node6" class="node"><title>n0xd47ca0</title><polygon fill="#fff" stroke="#000" points="159 -612 85 -612 85 -576 159 -576 159 -612"/><text x="93" y="-597.8" font-family="Fira Mono" font-size="9" font-weight="bold" text-anchor="start">WORD_TKN</text><text x="106.5" y="-587.2" font-family="Fira Mono" font-size="9" text-anchor="start">&quot;</text><text x="110.5" y="-587.2" fill="#05f" font-family="Fira Mono" font-size="11" font-weight="bold" text-anchor="start">bgp</text><text x="133.5" y="-587.2" font-family="Fira Mono" font-size="9" text-anchor="start">&quot;</text></g><g id="edge5" class="edge"><title>n0xd484c0-&gt;n0xd47ca0</title><path fill="none" stroke="#000" d="M122,-647.697C122,-639.983 122,-630.712 122,-622.112"/><polygon fill="#000" stroke="#000" points="125.5 -622.104 122 -612.104 118.5 -622.104 125.5 -622.104"/></g><g id="node7" class="node"><title>n0xd48540</title><polygon fill="#fff" stroke="#000" points="164.5 -540 79.5 -540 79.5 -504 164.5 -504 164.5 -540"/><text x="93" y="-525.8" font-family="Fira Mono" font-size="9" font-weight="bold" text-anchor="start">WORD_TKN</text><text x="87.5" y="-515.2" font-family="Fira Mono" font-size="9" text-anchor="start">&quot;</text><text x="91.5" y="-515.2" fill="#05f" font-family="Fira Mono" font-size="11" font-weight="bold" text-anchor="start">neighbors</text><text x="152.5" y="-515.2" font-family="Fira Mono" font-size="9" text-anchor="start">&quot;</text></g><g id="edge6" class="edge"><title>n0xd47ca0-&gt;n0xd48540</title><path fill="none" stroke="#000" d="M122,-575.697C122,-567.983 122,-558.712 122,-550.112"/><polygon fill="#000" stroke="#000" points="125.5 -550.104 122 -540.104 118.5 -550.104 125.5 -550.104"/></g><g id="node8" class="node"><title>n0xd490c0</title><polygon fill="#adf" stroke="#000" points="156.5 -468 87.5 -468 87.5 -432 156.5 -432 156.5 -468"/><text x="95.5" y="-448.8" font-family="Fira Mono" font-size="9" font-weight="bold" text-anchor="start">FORK_TKN</text></g><g id="edge7" class="edge"><title>n0xd48540-&gt;n0xd490c0</title><path fill="none" stroke="#000" d="M122,-503.697C122,-495.983 122,-486.712 122,-478.112"/><polygon fill="#000" stroke="#000" points="125.5 -478.104 122 -468.104 118.5 -478.104 125.5 -478.104"/></g><g id="node9" class="node"><title>n0xd48fc0</title><polygon fill="#fff" stroke="#000" points="64 -396 0 -396 0 -360 64 -360 64 -396"/><text x="8" y="-380.8" font-family="Fira Mono" font-size="9" font-weight="bold" text-anchor="start">IPV4_TKN</text><text x="15" y="-371.8" font-family="Fira Mono" font-size="9" text-anchor="start">A.B.C.D</text></g><g id="edge8" class="edge"><title>n0xd490c0-&gt;n0xd48fc0</title><path fill="none" stroke="#000" d="M99.7528,-431.697C88.4181,-422.881 74.4698,-412.032 62.1811,-402.474"/><polygon fill="#000" stroke="#000" points="64.034 -399.481 53.991 -396.104 59.736 -405.007 64.034 -399.481"/></g><g id="node10" class="node"><title>n0xd491e0</title><polygon fill="#daf" stroke="#000" points="153.5 -324 90.5 -324 90.5 -288 153.5 -288 153.5 -324"/><text x="98.5" y="-304.8" font-family="Fira Mono" font-size="9" font-weight="bold" text-anchor="start">JOIN_TKN</text></g><g id="edge19" class="edge"><title>n0xd490c0-&gt;n0xd491e0</title><path fill="none" stroke="#000" d="M117.536,-431.953C115.065,-421.63 112.248,-408.153 111,-396 109.366,-380.084 109.366,-375.916 111,-360 111.877,-351.455 113.531,-342.255 115.294,-333.958"/><polygon fill="#000" stroke="#000" points="118.743 -334.573 117.536 -324.047 111.915 -333.028 118.743 -334.573"/></g><g id="node15" class="node"><title>n0xd49340</title><polygon fill="#fff" stroke="#000" points="184 -396 120 -396 120 -360 184 -360 184 -396"/><text x="128" y="-380.8" font-family="Fira Mono" font-size="9" font-weight="bold" text-anchor="start">IPV6_TKN</text><text x="135" y="-371.8" font-family="Fira Mono" font-size="9" text-anchor="start">X:X::X:X</text></g><g id="edge15" class="edge"><title>n0xd490c0-&gt;n0xd49340</title><path fill="none" stroke="#000" d="M129.416,-431.697C132.794,-423.813 136.87,-414.304 140.623,-405.546"/><polygon fill="#000" stroke="#000" points="143.947 -406.675 144.67 -396.104 137.513 -403.917 143.947 -406.675"/></g><g id="node16" class="node"><title>n0xd49480</title><polygon fill="#fff" stroke="#000" points="291.5 -396 202.5 -396 202.5 -360 291.5 -360 291.5 -396"/><text x="210.5" y="-380.8" font-family="Fira Mono" font-size="9" font-weight="bold" text-anchor="start">VARIABLE_TKN</text><text x="233" y="-371.8" font-family="Fira Mono" font-size="9" text-anchor="start">WORD</text></g><g id="edge17" class="edge"><title>n0xd490c0-&gt;n0xd49480</title><path fill="none" stroke="#000" d="M152.578,-431.876C169.074,-422.639 189.624,-411.131 207.336,-401.212"/><polygon fill="#000" stroke="#000" points="209.289 -404.13 216.304 -396.19 205.869 -398.022 209.289 -404.13"/></g><g id="edge9" class="edge"><title>n0xd48fc0-&gt;n0xd491e0</title><path fill="none" stroke="#000" d="M54.2472,-359.697C65.5819,-350.881 79.5302,-340.032 91.8189,-330.474"/><polygon fill="#000" stroke="#000" points="94.264 -333.007 100.009 -324.104 89.966 -327.481 94.264 -333.007"/></g><g id="node11" class="node"><title>n0xd496e0</title><polygon fill="#adf" stroke="#000" points="156.5 -252 87.5 -252 87.5 -216 156.5 -216 156.5 -252"/><text x="95.5" y="-232.8" font-family="Fira Mono" font-size="9" font-weight="bold" text-anchor="start">FORK_TKN</text></g><g id="edge10" class="edge"><title>n0xd491e0-&gt;n0xd496e0</title><path fill="none" stroke="#000" d="M122,-287.697C122,-279.983 122,-270.712 122,-262.112"/><polygon fill="#000" stroke="#000" points="125.5 -262.104 122 -252.104 118.5 -262.104 125.5 -262.104"/></g><g id="node12" class="node"><title>n0xd495e0</title><polygon fill="#fff" stroke="#000" points="127 -180 53 -180 53 -144 127 -144 127 -180"/><text x="61" y="-165.8" font-family="Fira Mono" font-size="9" font-weight="bold" text-anchor="start">WORD_TKN</text><text x="73.5" y="-155.2" font-family="Fira Mono" font-size="9" text-anchor="start">&quot;</text><text x="77.5" y="-155.2" fill="#05f" font-family="Fira Mono" font-size="11" font-weight="bold" text-anchor="start">json</text><text x="102.5" y="-155.2" font-family="Fira Mono" font-size="9" text-anchor="start">&quot;</text></g><g id="edge11" class="edge"><title>n0xd496e0-&gt;n0xd495e0</title><path fill="none" stroke="#000" d="M114.09,-215.697C110.447,-207.728 106.046,-198.1 102.006,-189.264"/><polygon fill="#000" stroke="#000" points="105.16 -187.744 97.819 -180.104 98.794 -190.654 105.16 -187.744"/></g><g id="node13" class="node"><title>n0xd497c0</title><polygon fill="#daf" stroke="#000" points="153.5 -108 90.5 -108 90.5 -72 153.5 -72 153.5 -108"/><text x="98.5" y="-88.8" font-family="Fira Mono" font-size="9" font-weight="bold" text-anchor="start">JOIN_TKN</text></g><g id="edge14" class="edge"><title>n0xd496e0-&gt;n0xd497c0</title><path fill="none" stroke="#000" d="M127.824,-215.56C130.931,-205.33 134.431,-192.08 136,-180 138.06,-164.133 138.06,-159.867 136,-144 134.897,-135.506 132.839,-126.434 130.634,-118.24"/><polygon fill="#000" stroke="#000" points="133.945 -117.087 127.824 -108.44 127.216 -119.017 133.945 -117.087"/></g><g id="edge12" class="edge"><title>n0xd495e0-&gt;n0xd497c0</title><path fill="none" stroke="#000" d="M97.9101,-143.697C101.553,-135.728 105.954,-126.1 109.994,-117.264"/><polygon fill="#000" stroke="#000" points="113.206 -118.654 114.181 -108.104 106.84 -115.744 113.206 -118.654"/></g><g id="node14" class="node"><title>end0xd49900</title><polygon fill="#fda" stroke="#000" points="149 -36 95 -36 95 0 149 0 149 -36"/><text x="112.5" y="-15.8" font-family="Fira Mono" font-size="9" text-anchor="start">end</text></g><g id="edge13" class="edge"><title>n0xd497c0-&gt;end0xd49900</title><path fill="none" stroke="#000" d="M122,-71.6966C122,-63.9827 122,-54.7125 122,-46.1124"/><polygon fill="#000" stroke="#000" points="125.5 -46.104 122 -36.104 118.5 -46.104 125.5 -46.104"/></g><g id="edge16" class="edge"><title>n0xd49340-&gt;n0xd491e0</title><path fill="none" stroke="#000" d="M144.584,-359.697C141.206,-351.813 137.13,-342.304 133.377,-333.546"/><polygon fill="#000" stroke="#000" points="136.487 -331.917 129.33 -324.104 130.053 -334.675 136.487 -331.917"/></g><g id="edge18" class="edge"><title>n0xd49480-&gt;n0xd491e0</title><path fill="none" stroke="#000" d="M216.422,-359.876C199.926,-350.639 179.376,-339.131 161.664,-329.212"/><polygon fill="#000" stroke="#000" points="163.131 -326.022 152.696 -324.19 159.711 -332.13 163.131 -326.022"/></g></g></svg>