<svg xmlns="http://www.w3.org/2000/svg" xmlns:svg="http://www.w3.org/2000/svg" id="svg2" width="349.252" height="651.469" version="1.1" viewBox="52 37 349.252 651.469"><metadata id="metadata376"/><g id="g12" transform="translate(-3.09375,-3.7812531)"><path id="path14" d="M 216,98.125 216,684" style="fill:none;stroke:#000100;stroke-width:8"/><path id="path16" d="M 205,99.5 216,72 227,99.5" style="fill:#000100"/><path id="path18" d="M 225.625,692.25 216,684 l -9.625,8.25 0,-30.25 9.625,-8.25 9.625,8.25" style="fill:#000100"/></g><path id="path20" d="m 212.90625,644.21875 -72,-36" style="fill:none;stroke:red;stroke-width:8"/><path id="path22" d="m 212.90625,428.21875 -72,-36" style="fill:none;stroke:red;stroke-width:8"/><text id="text30" x="143.894" y="427.826" font-size="12" font-weight="bold" xml:space="preserve" style="font-weight:700;font-size:12px;font-family:Helvetica;text-anchor:middle;fill:red"><tspan id="tspan32">1.0</tspan><tspan id="tspan34" x="143.894" y="443.826">Release</tspan><tspan id="tspan36" x="143.894" y="459.826">Branch</tspan></text><path id="path42" d="m 213.73825,392.21875 -72.832,-36" style="fill:none;stroke:red;stroke-width:8"/><path id="path44" d="m 212.73825,356.21875 -71.832,-36" style="fill:none;stroke:red;stroke-width:8"/><path id="path46" d="m 220.90625,644.21875 c 0,4.418 -3.582,8 -8,8 -4.418,0 -8,-3.582 -8,-8 0,-4.418 3.582,-8 8,-8 4.418,0 8,3.582 8,8 z" style="fill:#fffffe;stroke:#000100"/><path id="path48" d="m 220.90625,464.21875 c 0,4.418 -3.582,8 -8,8 -4.418,0 -8,-3.582 -8,-8 0,-4.418 3.582,-8 8,-8 4.418,0 8,3.582 8,8 z" style="fill:#fffffe;stroke:#000100"/><path id="path50" d="m 220.90625,428.21875 c 0,4.418 -3.582,8 -8,8 -4.418,0 -8,-3.582 -8,-8 0,-4.418 3.582,-8 8,-8 4.418,0 8,3.582 8,8 z" style="fill:#fffffe;stroke:#000100"/><path id="path52" d="m 220.90625,608.21875 c 0,4.418 -3.582,8 -8,8 -4.418,0 -8,-3.582 -8,-8 0,-4.418 3.582,-8 8,-8 4.418,0 8,3.582 8,8 z" style="fill:#fffffe;stroke:#000100"/><path id="path54" d="m 220.90625,140.21875 c 0,4.418 -3.582,8 -8,8 -4.418,0 -8,-3.582 -8,-8 0,-4.418 3.582,-8 8,-8 4.418,0 8,3.582 8,8 z" style="fill:#fffffe;stroke:#000100"/><path id="path58" d="m 220.90625,356.21875 c 0,4.418 -3.582,8 -8,8 -4.418,0 -8,-3.582 -8,-8 0,-4.418 3.582,-8 8,-8 4.418,0 8,3.582 8,8 z" style="fill:#fffffe;stroke:#000100"/><path id="path60" d="m 220.90625,392.21875 c 0,4.418 -3.582,8 -8,8 -4.418,0 -8,-3.582 -8,-8 0,-4.418 3.582,-8 8,-8 4.418,0 8,3.582 8,8 z" style="fill:#fffffe;stroke:#000100"/><text id="text62" x="213.218" y="45.748" font-size="12" font-weight="bold" xml:space="preserve" style="font-weight:700;font-size:12px;font-family:Helvetica;text-anchor:middle;fill:#000100"><tspan id="tspan64">Master</tspan><tspan id="tspan66" x="213.218" y="61.748">(Stable)</tspan></text><g id="g82" transform="translate(-3.09375,-3.7812531)"><path id="path84" d="m 144.832,612 0,-117.875" style="fill:none;stroke:red;stroke-width:8"/><path id="path86" d="m 133.832,495.5 11,-27.5 11,27.5" style="fill:red"/></g><g id="g88" transform="translate(-3.09375,-3.7812531)"><path id="path90" d="m 144.832,396 0,-189.875" style="fill:none;stroke:red;stroke-width:8"/><path id="path92" d="m 133.832,207.5 11,-27.5 11,27.5" style="fill:red"/></g><text id="text94" x="143.894" y="138.826" font-size="12" font-weight="bold" xml:space="preserve" style="font-weight:700;font-size:12px;font-family:Helvetica;text-anchor:middle;fill:red"><tspan id="tspan96">1.1</tspan><tspan id="tspan98" x="143.894" y="154.826">Release</tspan><tspan id="tspan100" x="143.894" y="170.826">Branch</tspan></text><text id="text102" x="51.906" y="611.979" font-size="12" xml:space="preserve" style="font-size:12px;font-family:Helvetica;fill:#000100"><tspan id="tspan104">Version 1.</tspan><tspan id="tspan106">0.a1</tspan></text><text id="text108" x="52.68" y="395.979" font-size="12" xml:space="preserve" style="font-size:12px;font-family:Helvetica;fill:#000100"><tspan id="tspan110">Version 1.1.a1</tspan></text><text id="text112" x="51.906" y="359.979" font-size="12" xml:space="preserve" style="font-size:12px;font-family:Helvetica;fill:#000100"><tspan id="tspan114">Version 1.1.a2</tspan></text><path id="path116" d="m 148.90625,608.21875 c 0,4.418 -3.582,8 -8,8 -4.418,0 -8,-3.582 -8,-8 0,-4.418 3.582,-8 8,-8 4.418,0 8,3.582 8,8 z" style="fill:#fffffe;stroke:#000100"/><path id="path118" d="m 148.90625,392.21875 c 0,4.418 -3.582,8 -8,8 -4.418,0 -8,-3.582 -8,-8 0,-4.418 3.582,-8 8,-8 4.418,0 8,3.582 8,8 z" style="fill:#fffffe;stroke:#000100"/><path id="path120" d="m 148.90625,356.21875 c 0,4.418 -3.582,8 -8,8 -4.418,0 -8,-3.582 -8,-8 0,-4.418 3.582,-8 8,-8 4.418,0 8,3.582 8,8 z" style="fill:#fffffe;stroke:#000100"/><path id="path122" d="m 148.90625,320.21875 c 0,4.418 -3.582,8 -8,8 -4.418,0 -8,-3.582 -8,-8 0,-4.418 3.582,-8 8,-8 4.418,0 8,3.582 8,8 z" style="fill:#fffffe;stroke:#000100"/><text id="text124" x="52.68" y="323.979" font-size="12" xml:space="preserve" style="font-size:12px;font-family:Helvetica;fill:#000100"><tspan id="tspan126">Version 1.</tspan><tspan id="tspan128">1.b1</tspan></text><g id="g156" transform="translate(-67.09375,-3.7812531)"><path id="path158" d="m 432,540 -127.375,0" style="fill:none;stroke:#666;stroke-width:4"/><path id="path160" d="m 305.5,547 -17.5,-7 17.5,-7" style="fill:#666"/></g><g id="g162" transform="translate(-67.09375,-3.7812531)"><path id="path164" d="m 432,504 -127.375,0" style="fill:none;stroke:#666;stroke-width:4"/><path id="path166" d="m 305.5,511 -17.5,-7 17.5,-7" style="fill:#666"/></g><g id="g168" transform="translate(-67.09375,-3.7812531)"><path id="path170" d="m 432,468 -127.375,0" style="fill:none;stroke:#666;stroke-width:4"/><path id="path172" d="m 305.5,475 -17.5,-7 17.5,-7" style="fill:#666"/></g><g id="g174" transform="translate(-67.09375,-3.7812531)"><path id="path176" d="m 432,432 -127.375,0" style="fill:none;stroke:#666;stroke-width:4"/><path id="path178" d="m 305.5,439 -17.5,-7 17.5,-7" style="fill:#666"/></g><g id="g180" transform="translate(-67.09375,-3.7812531)"><path id="path182" d="m 432,396 -127.375,0" style="fill:none;stroke:#666;stroke-width:4"/><path id="path184" d="m 305.5,403 -17.5,-7 17.5,-7" style="fill:#666"/></g><g id="g186" transform="translate(-67.09375,-3.7812531)"><path id="path188" d="m 432,360 -127.375,0" style="fill:none;stroke:#666;stroke-width:4"/><path id="path190" d="m 305.5,367 -17.5,-7 17.5,-7" style="fill:#666"/></g><g id="g192" transform="translate(-67.09375,-3.7812531)"><path id="path194" d="m 432,324 -127.375,0" style="fill:none;stroke:#666;stroke-width:4"/><path id="path196" d="m 305.5,331 -17.5,-7 17.5,-7" style="fill:#666"/></g><g id="g198" transform="translate(-67.09375,-3.7812531)"><path id="path200" d="m 432,288 -127.375,0" style="fill:none;stroke:#666;stroke-width:4"/><path id="path202" d="m 305.5,295 -17.5,-7 17.5,-7" style="fill:#666"/></g><g id="g204" transform="translate(-67.09375,-3.7812531)"><path id="path206" d="m 432,252 -127.375,0" style="fill:none;stroke:#666;stroke-width:4"/><path id="path208" d="m 305.5,259 -17.5,-7 17.5,-7" style="fill:#666"/></g><g id="g210" transform="translate(-67.09375,-3.7812531)"><path id="path212" d="m 432,216 -127.375,0" style="fill:none;stroke:#666;stroke-width:4"/><path id="path214" d="m 305.5,223 -17.5,-7 17.5,-7" style="fill:#666"/></g><g id="g216" transform="translate(-67.09375,-3.7812531)"><path id="path218" d="m 404,180 -99.375,0" style="fill:none;stroke:#666;stroke-width:4"/><path id="path220" d="m 305.5,187 -17.5,-7 17.5,-7" style="fill:#666"/></g><g id="g222" transform="translate(-67.09375,-3.7812531)"><path id="path224" d="m 432,180 -127.375,0" style="fill:none;stroke:#666;stroke-width:4"/><path id="path226" d="m 305.5,187 -17.5,-7 17.5,-7" style="fill:#666"/></g><g id="g228" transform="translate(-67.09375,-3.7812531)"><path id="path230" d="m 432,144 -127.375,0" style="fill:none;stroke:#666;stroke-width:4"/><path id="path232" d="m 305.5,151 -17.5,-7 17.5,-7" style="fill:#666"/></g><text id="text234" x="256.906" y="531.219" font-size="12" xml:space="preserve" style="font-size:12px;font-family:Helvetica;fill:#000100"><tspan id="tspan236">Patch Email (Patchwork)</tspan></text><text id="text238" x="256.906" y="495.219" font-size="12" xml:space="preserve" style="font-size:12px;font-family:Helvetica;fill:#000100"><tspan id="tspan240">Github Pull Request</tspan></text><text id="text242" x="256.906" y="459.219" font-size="12" xml:space="preserve" style="font-size:12px;font-family:Helvetica;fill:#000100"><tspan id="tspan244">Github Pull Request</tspan></text><text id="text246" x="256.906" y="423.219" font-size="12" xml:space="preserve" style="font-size:12px;font-family:Helvetica;fill:#000100"><tspan id="tspan248">Patch Email (Patchwork)</tspan></text><text id="text250" x="256.906" y="387.219" font-size="12" xml:space="preserve" style="font-size:12px;font-family:Helvetica;fill:#000100"><tspan id="tspan252">Patch Email (Patchwork)</tspan></text><text id="text254" x="256.906" y="351.219" font-size="12" xml:space="preserve" style="font-size:12px;font-family:Helvetica;fill:#000100"><tspan id="tspan256">Github Pull Request</tspan></text><text id="text258" x="256.906" y="315.219" font-size="12" xml:space="preserve" style="font-size:12px;font-family:Helvetica;fill:#000100"><tspan id="tspan260">Github Pull Request</tspan></text><text id="text262" x="256.906" y="279.219" font-size="12" xml:space="preserve" style="font-size:12px;font-family:Helvetica;fill:#000100"><tspan id="tspan264">Github Pull Request</tspan></text><text id="text266" x="256.906" y="243.219" font-size="12" xml:space="preserve" style="font-size:12px;font-family:Helvetica;fill:#000100"><tspan id="tspan268">Patch Email (Patchwork)</tspan></text><text id="text270" x="256.906" y="207.219" font-size="12" xml:space="preserve" style="font-size:12px;font-family:Helvetica;fill:#000100"><tspan id="tspan272">Github Pull Request</tspan></text><text id="text274" x="256.906" y="171.219" font-size="12" xml:space="preserve" style="font-size:12px;font-family:Helvetica;fill:#000100"><tspan id="tspan276">Github Pull Request</tspan></text><text id="text278" x="256.906" y="135.219" font-size="12" xml:space="preserve" style="font-size:12px;font-family:Helvetica;fill:#000100"><tspan id="tspan280">Github Pull Request</tspan></text><text id="text282" x="256.906" y="603.219" font-size="12" xml:space="preserve" style="font-size:12px;font-family:Helvetica;fill:#000100"><tspan id="tspan284">Github Pull Request</tspan></text><text id="text286" x="256.906" y="567.219" font-size="12" xml:space="preserve" style="font-size:12px;font-family:Helvetica;fill:#000100"><tspan id="tspan288">Github Pull Request</tspan></text><text id="text290" x="256.906" y="567.219" font-size="12" xml:space="preserve" style="font-size:12px;font-family:Helvetica;fill:#000100"><tspan id="tspan292">Github Pull Request</tspan></text><g id="g294" transform="translate(-67.09375,-3.7812531)"><path id="path296" d="m 432,612 -127.72,0" style="fill:none;stroke:#666;stroke-width:4"/><path id="path298" d="m 305.155,619 -17.5,-7 17.5,-7" style="fill:#666"/></g><g id="g300" transform="translate(-67.09375,-3.7812531)"><path id="path302" d="m 432,576 -127.375,0" style="fill:none;stroke:#666;stroke-width:4"/><path id="path304" d="m 305.5,583 -17.5,-7 17.5,-7" style="fill:#666"/></g><text id="text306" x="52.906" y="577.219" font-size="12" xml:space="preserve" style="font-size:12px;font-family:Helvetica;fill:#000100"><tspan id="tspan308">Version 1.</tspan><tspan id="tspan310">0.a2</tspan></text><text id="text312" x="52.906" y="541.219" font-size="12" xml:space="preserve" style="font-size:12px;font-family:Helvetica;fill:#000100"><tspan id="tspan314">Version 1.</tspan><tspan id="tspan316">0.b1</tspan></text><text id="text318" x="52.906" y="505.219" font-size="12" xml:space="preserve" style="font-size:12px;font-family:Helvetica;fill:#000100"><tspan id="tspan320">Version 1.</tspan><tspan id="tspan322">0.0</tspan></text><text id="text324" x="52.68" y="288.979" font-size="12" xml:space="preserve" style="font-size:12px;font-family:Helvetica;fill:#000100"><tspan id="tspan326">Version 1.1.0</tspan></text><text id="text328" x="51.906" y="252.979" font-size="12" xml:space="preserve" style="font-size:12px;font-family:Helvetica;fill:#000100"><tspan id="tspan330">Version 1.1.1</tspan></text><text id="text332" x="52.68" y="216.979" font-size="12" xml:space="preserve" style="font-size:12px;font-family:Helvetica;fill:#000100"><tspan id="tspan334">Version 1.</tspan><tspan id="tspan336">1.2</tspan></text><path id="path338" d="m 212.90625,608.21875 -72,-36" style="fill:none;stroke:red;stroke-width:8"/><path id="path340" d="m 212.90625,572.21875 -72,-36" style="fill:none;stroke:red;stroke-width:8"/><path id="path342" d="m 212.90625,536.21875 -72,-36" style="fill:none;stroke:red;stroke-width:8"/><path id="path344" d="m 212.90625,320.21875 -72,-36" style="fill:none;stroke:red;stroke-width:8"/><path id="path346" d="m 212.90625,284.21875 -72,-36" style="fill:none;stroke:red;stroke-width:8"/><path id="path348" d="m 212.90625,248.21875 -72,-36" style="fill:none;stroke:red;stroke-width:8"/><path id="path350" d="m 148.90625,571.21875 c 0,4.418 -3.582,8 -8,8 -4.418,0 -8,-3.582 -8,-8 0,-4.418 3.582,-8 8,-8 4.418,0 8,3.582 8,8 z" style="fill:#fffffe;stroke:#000100"/><path id="path352" d="m 148.90625,535.21875 c 0,4.418 -3.582,8 -8,8 -4.418,0 -8,-3.582 -8,-8 0,-4.418 3.582,-8 8,-8 4.418,0 8,3.582 8,8 z" style="fill:#fffffe;stroke:#000100"/><path id="path354" d="m 148.90625,499.21875 c 0,4.418 -3.582,8 -8,8 -4.418,0 -8,-3.582 -8,-8 0,-4.418 3.582,-8 8,-8 4.418,0 8,3.582 8,8 z" style="fill:#fffffe;stroke:#000100"/><path id="path356" d="m 148.90625,284.21875 c 0,4.418 -3.582,8 -8,8 -4.418,0 -8,-3.582 -8,-8 0,-4.418 3.582,-8 8,-8 4.418,0 8,3.582 8,8 z" style="fill:#fffffe;stroke:#000100"/><path id="path358" d="m 148.90625,248.21875 c 0,4.418 -3.582,8 -8,8 -4.418,0 -8,-3.582 -8,-8 0,-4.418 3.582,-8 8,-8 4.418,0 8,3.582 8,8 z" style="fill:#fffffe;stroke:#000100"/><path id="path360" d="m 148.90625,212.21875 c 0,4.418 -3.582,8 -8,8 -4.418,0 -8,-3.582 -8,-8 0,-4.418 3.582,-8 8,-8 4.418,0 8,3.582 8,8 z" style="fill:#fffffe;stroke:#000100"/><path id="path362" d="m 220.90625,572.21875 c 0,4.418 -3.582,8 -8,8 -4.418,0 -8,-3.582 -8,-8 0,-4.418 3.582,-8 8,-8 4.418,0 8,3.582 8,8 z" style="fill:#fffffe;stroke:#000100"/><path id="path364" d="m 220.90625,536.21875 c 0,4.418 -3.582,8 -8,8 -4.418,0 -8,-3.582 -8,-8 0,-4.418 3.582,-8 8,-8 4.418,0 8,3.582 8,8 z" style="fill:#fffffe;stroke:#000100"/><path id="path366" d="m 220.90625,320.21875 c 0,4.418 -3.582,8 -8,8 -4.418,0 -8,-3.582 -8,-8 0,-4.418 3.582,-8 8,-8 4.418,0 8,3.582 8,8 z" style="fill:#fffffe;stroke:#000100"/><path id="path368" d="m 220.90625,248.21875 c 0,4.418 -3.582,8 -8,8 -4.418,0 -8,-3.582 -8,-8 0,-4.418 3.582,-8 8,-8 4.418,0 8,3.582 8,8 z" style="fill:#fffffe;stroke:#000100"/><path id="path370" d="m 220.90625,284.21875 c 0,4.418 -3.582,8 -8,8 -4.418,0 -8,-3.582 -8,-8 0,-4.418 3.582,-8 8,-8 4.418,0 8,3.582 8,8 z" style="fill:#fffffe;stroke:#000100"/></svg>